HIERARCHY
ROOT Hips
{
	OFFSET 0.00 0.00 0.00
	CHANNELS 6 Xposition Yposition Zposition Xrotation Yrotation Zrotation
	JOINT Spine
	{
		OFFSET 0.00000 5.89385 0.00000
		CHANNELS 3 Xrotation Yrotation Zrotation
		JOINT Head
		{
			OFFSET 0.00000 16.44715 0.00000
			CHANNELS 3 Xrotation Yrotation Zrotation
			End Site
			{
				OFFSET 0.00000 4.52755 0.00000
			}
		}
		JOINT LeftShoulder
		{
			OFFSET 0.00000 10.90038 0.00000
			CHANNELS 3 Xrotation Yrotation Zrotation
			JOINT LeftArm
			{
				OFFSET 8.21946 0.00000 0.00000
				CHANNELS 3 Xrotation Yrotation Zrotation
				JOINT LeftForeArm
				{
					OFFSET 11.09494 0.00000 0.00000
					CHANNELS 3 Yrotation Zrotation Xrotation
					JOINT LeftHand
					{
						OFFSET 9.10388 0.00000 0.00000
						CHANNELS 3 Xrotation Yrotation Zrotation
						JOINT LeftHandThumb1
						{
							OFFSET 0.00000 0.00000 0.00000
							CHANNELS 3 Xrotation Zrotation Yrotation
							End Site
							{
								OFFSET 0.00000 0.00000 3.93700
							}
						}
						End Site
						{
							OFFSET 3.93700 0.00000 0.00000
						}
					}
				}
			}
		}
		JOINT RightShoulder
		{
			OFFSET 0.00000 10.90038 0.00000
			CHANNELS 3 Xrotation Yrotation Zrotation
			JOINT RightArm
			{
				OFFSET -8.21946 0.00000 0.00000
				CHANNELS 3 Xrotation Yrotation Zrotation
				JOINT RightForeArm
				{
					OFFSET -11.09494 0.00000 0.00000
					CHANNELS 3 Yrotation Zrotation Xrotation
					JOINT RightHand
					{
						OFFSET -9.10388 0.00000 0.00000
						CHANNELS 3 Xrotation Yrotation Zrotation
						JOINT RightHandThumb1
						{
							OFFSET 0.00000 0.00000 0.00000
							CHANNELS 3 Xrotation Zrotation Yrotation
							End Site
							{
								OFFSET 0.00000 0.00000 3.93700
							}
						}
						End Site
						{
							OFFSET -3.93700 0.00000 0.00000
						}
					}
				}
			}
		}
	}
	JOINT LeftUpLeg
	{
		OFFSET 3.69794 0.00000 0.00000
		CHANNELS 3 Xrotation Yrotation Zrotation
		JOINT LeftLeg
		{
			OFFSET 0.00000 -16.18147 0.00000
			CHANNELS 3 Xrotation Yrotation Zrotation
			JOINT LeftFoot
			{
				OFFSET 0.00000 -16.50139 0.00000
				CHANNELS 3 Xrotation Yrotation Zrotation
				JOINT LeftToeBase
				{
					OFFSET 0.00000 -1.65857 6.18989
					CHANNELS 3 Xrotation Yrotation Zrotation
					End Site
					{
						OFFSET 0.00000 0.00000 2.95275
					}
				}
			}
		}
	}
	JOINT RightUpLeg
	{
		OFFSET -3.69794 0.00000 0.00000
		CHANNELS 3 Xrotation Yrotation Zrotation
		JOINT RightLeg
		{
			OFFSET 0.00000 -16.18147 0.00000
			CHANNELS 3 Xrotation Yrotation Zrotation
			JOINT RightFoot
			{
				OFFSET 0.00000 -16.50139 0.00000
				CHANNELS 3 Xrotation Yrotation Zrotation
				JOINT RightToeBase
				{
					OFFSET 0.00000 -1.65857 6.18989
					CHANNELS 3 Xrotation Yrotation Zrotation
					End Site
					{
						OFFSET 0.00000 0.00000 2.95275
					}
				}
			}
		}
	}
}
MOTION
Frames: 20
Frame Time: 0.008333
 1.3531 22.4393 -0.7145 -161.7854 86.9280 -20.2551 -154.2589 -0.2162 -0.4983 13.8674 13.1125 -0.9089 19.7036 12.3806 24.3941 -23.2609 -11.5346 -84.5272 -37.6571 -0.0000 24.4096 0.3433 11.3326 -1.7467 33.1476 -0.0000 26.2537 51.4025 -32.5323 -7.6557 -38.3547 42.5310 51.2277 46.4943 0.0000 8.7614 0.2517 5.9022 -2.4464 32.8623 0.0000 -24.3270 121.1908 -5.9400 15.2515 117.9349 -0.0000 -0.0000 -29.5982 3.3942 -11.9948 -22.3903 -0.0000 -0.0000 125.4654 5.9834 -20.5593 119.7679 0.0000 -0.0000 -34.9067 -2.7402 19.1618 -20.3769 -0.0000 -0.0000
 1.3030 22.4225 -0.6984 -159.0900 86.9334 -22.9216 -154.6189 -0.2234 -0.5263 13.8879 13.0872 -0.9436 19.7851 12.4978 24.2726 -23.0403 -11.8084 -84.8450 -37.7211 -0.0000 24.5296 0.3703 11.3065 -1.8882 33.1476 -0.0000 26.2537 51.5710 -32.6294 -7.4472 -38.1691 42.7284 51.5166 46.7110 0.0000 8.7169 0.2798 5.8943 -2.7227 32.8623 0.0000 -24.3270 121.1271 -5.9165 15.3683 118.0705 0.0000 -0.0000 -29.5977 3.2983 -12.0112 -22.6405 0.0000 -0.0000 125.3866 5.9833 -20.5690 119.8533 -0.0000 -0.0000 -34.8763 -2.7545 19.1164 -20.5465 0.0000 -0.0000
 1.2523 22.4054 -0.6834 -155.9991 86.9286 -26.0007 -155.0040 -0.2259 -0.5668 13.9171 13.0762 -0.9927 19.8477 12.6058 24.2062 -22.8703 -12.2606 -85.2048 -37.6375 -0.0000 24.2394 0.3227 11.4376 -1.6267 33.1476 -0.0000 26.2537 51.7678 -32.7215 -7.2679 -38.0443 42.8401 51.8713 46.9312 0.0000 8.7853 0.2767 5.9014 -2.6893 32.8623 0.0000 -24.3270 121.0692 -5.8862 15.4983 118.1941 -0.0000 -0.0000 -29.6298 3.1745 -12.1325 -22.8945 0.0000 0.0000 125.2802 5.9814 -20.6052 119.9444 -0.0000 -0.0000 -34.8383 -2.7404 19.0491 -20.7737 -0.0000 0.0000
 1.2048 22.3874 -0.6644 -154.2168 86.9503 -27.7307 -155.3232 -0.2302 -0.5628 13.9490 13.0942 -1.0516 19.8667 12.7556 24.1349 -22.7207 -12.7342 -85.5613 -37.4682 -0.0000 24.1995 0.3004 11.4844 -1.5084 33.1476 -0.0000 26.2537 51.9505 -32.8286 -7.0698 -37.9524 43.0362 52.2302 47.0453 0.0000 8.6651 0.2730 5.9465 -2.6329 32.8623 0.0000 -24.3270 121.0707 -5.8718 15.6589 118.3298 0.0000 -0.0000 -29.6566 3.0203 -12.2283 -23.1753 -0.0000 -0.0000 125.2573 5.9587 -20.6302 120.0330 -0.0000 -0.0000 -34.8310 -2.7450 19.0920 -20.8575 -0.0000 0.0000
 1.1501 22.3762 -0.6470 -149.6908 86.8985 -32.2304 -155.7705 -0.2307 -0.5795 13.9569 13.1011 -1.1301 19.8784 12.8391 24.0485 -22.5264 -13.0552 -85.8751 -37.3775 -0.0000 24.1917 0.3055 11.4490 -1.5386 33.1476 -0.0000 26.2537 52.0724 -32.8879 -6.9497 -37.7911 43.1743 52.5836 47.1629 0.0000 8.7041 0.2900 6.0183 -2.7640 32.8623 0.0000 -24.3270 120.9298 -5.8348 15.7749 118.4494 -0.0000 -0.0000 -29.6249 2.9363 -12.2752 -23.5163 0.0000 -0.0000 125.1503 6.0071 -20.6496 120.0968 0.0000 0.0000 -34.9981 -2.9134 19.7113 -20.0969 0.0000 -0.0000
 1.0971 22.3629 -0.6279 -146.3962 86.8282 -35.5267 -156.1832 -0.2585 -0.5963 13.9657 13.0799 -1.1958 19.9083 12.8999 23.9775 -22.3149 -13.2582 -86.2030 -37.3302 -0.0000 24.2226 0.3345 11.1517 -1.7289 33.1476 -0.0000 26.2537 52.1983 -32.9848 -6.8109 -37.6248 43.3471 52.9185 47.2397 0.0000 8.7155 0.3029 5.5908 -3.1062 32.8623 0.0000 -24.3270 120.8305 -5.7838 15.8596 118.5626 0.0000 -0.0000 -29.6243 2.8492 -12.3742 -23.7804 -0.0000 -0.0000 125.0448 6.0046 -20.7643 120.1653 0.0000 0.0000 -35.0099 -2.8735 19.8084 -20.1446 0.0000 -0.0000
 1.0563 22.3443 -0.6115 -146.2749 86.8635 -35.5467 -156.4329 -0.2540 -0.5671 13.9829 13.0795 -1.1668 20.0067 13.0172 23.9422 -22.1459 -13.3806 -86.5220 -37.3220 -0.0000 24.4088 0.3396 11.2351 -1.7426 33.1476 -0.0000 26.2537 52.3513 -33.0452 -6.6353 -37.4661 43.5547 53.2680 47.2416 0.0000 8.7483 0.3019 5.9567 -2.9063 32.8623 0.0000 -24.3270 120.8979 -5.8557 15.9807 118.7075 -0.0000 0.0000 -29.6361 2.7711 -12.4697 -24.0887 -0.0000 0.0000 125.0499 5.8840 -20.8577 120.2495 0.0000 0.0000 -34.8889 -2.7527 19.6562 -20.4385 0.0000 0.0000
 1.0003 22.3339 -0.5892 -141.4130 86.7766 -40.3973 -156.9088 -0.2547 -0.5792 13.9810 13.0914 -1.2474 20.1284 13.1457 23.7867 -22.0165 -13.5465 -86.8172 -37.3772 -0.0000 24.5304 0.2995 11.3952 -1.5154 33.1476 -0.0000 26.2537 52.4768 -33.1299 -6.5158 -37.3382 43.7570 53.5793 47.2617 0.0000 8.5842 0.2600 5.9470 -2.5075 32.8623 0.0000 -24.3270 120.7386 -5.7354 16.2006 118.8196 0.0000 0.0000 -29.6458 2.5866 -12.5743 -24.3388 0.0000 0.0000 124.8526 5.9186 -20.9240 120.3023 0.0000 0.0000 -34.8364 -2.6706 19.6240 -20.6694 0.0000 0.0000
 0.9591 22.3171 -0.5777 -141.3089 86.8115 -40.4317 -157.1557 -0.2757 -0.5748 13.9952 13.0661 -1.2064 20.2161 13.2613 23.7366 -21.8343 -13.6132 -87.1252 -37.3567 -0.0000 24.7359 0.2612 11.5430 -1.3053 33.1476 -0.0000 26.2537 52.6651 -33.1942 -6.3202 -37.2254 43.9939 53.9201 47.2269 0.0000 8.5648 0.2413 5.7760 -2.3959 32.8623 0.0000 -24.3270 120.8054 -5.7734 16.3308 118.9508 -0.0000 0.0000 -29.6328 2.4884 -12.6739 -24.6428 0.0000 -0.0000 124.8994 5.8591 -20.9829 120.3804 0.0000 0.0000 -34.7626 -2.5824 19.6241 -20.9622 -0.0000 -0.0000
 0.9067 22.3082 -0.5569 -137.9970 86.7071 -43.6954 -157.5814 -0.2801 -0.5550 13.9678 13.0176 -1.2144 20.2942 13.3545 23.6474 -21.7367 -13.5550 -87.4255 -37.2689 -0.0000 24.4736 0.2608 11.4810 -1.3102 33.1476 -0.0000 26.2537 52.7671 -33.2531 -6.2000 -37.0800 44.1608 54.2687 47.2013 0.0000 8.5335 0.2317 5.7313 -2.3188 32.8623 0.0000 -24.3270 120.6604 -5.7185 16.4916 119.0676 0.0000 -0.0000 -29.5809 2.3604 -12.6873 -24.9844 -0.0000 -0.0000 124.7738 5.8222 -21.0999 120.4094 -0.0000 -0.0000 -34.7205 -2.4658 19.7056 -21.1371 -0.0000 -0.0000
 0.8667 22.2959 -0.5374 -137.3803 86.7118 -44.2527 -157.8492 -0.2862 -0.5259 13.9748 12.9854 -1.1983 20.3588 13.4599 23.5878 -21.6385 -13.5377 -87.7279 -37.1519 -0.0000 24.2224 0.2654 11.5035 -1.3307 33.1476 -0.0000 26.2537 52.9129 -33.3115 -6.0306 -36.9202 44.3381 54.5654 47.1702 0.0000 8.5203 0.2404 5.1276 -2.6882 32.8623 0.0000 -24.3270 120.6645 -5.7004 16.6204 119.1920 -0.0000 0.0000 -29.5441 2.2570 -12.6838 -25.2603 0.0000 -0.0000 124.7908 5.7736 -21.2074 120.4538 -0.0000 -0.0000 -34.6506 -2.3491 19.7419 -21.3363 0.0000 0.0000
 0.8236 22.2857 -0.5186 -135.7604 86.6793 -45.8172 -158.1709 -0.2909 -0.5056 13.9641 12.9465 -1.1731 20.3643 13.5562 23.5404 -21.5080 -13.5394 -88.0146 -37.0035 -0.0000 23.8205 0.2437 11.5870 -1.2132 33.1476 -0.0000 26.2537 52.9963 -33.3613 -5.9128 -36.7871 44.4695 54.9414 47.0969 0.0000 8.4817 0.2285 5.4629 -2.3985 32.8623 0.0000 -24.3270 120.6145 -5.6593 16.7804 119.3055 0.0000 0.0000 -29.4945 2.1363 -12.6902 -25.5916 -0.0000 0.0000 124.7461 5.7273 -21.3084 120.4939 -0.0000 -0.0000 -34.5941 -2.2384 19.7410 -21.4942 0.0000 -0.0000
 0.7838 22.2739 -0.5016 -134.9236 86.7054 -46.6051 -158.4305 -0.3013 -0.4944 13.9698 12.9575 -1.1521 20.3720 13.6535 23.4925 -21.3545 -13.5121 -88.2721 -36.8602 -0.0000 23.4139 0.2130 11.7020 -1.0499 33.1476 -0.0000 26.2537 53.1429 -33.4230 -5.7773 -36.6623 44.6592 55.2678 47.0669 0.0000 8.3502 0.1906 5.1843 -2.1086 32.8623 0.0000 -24.3270 120.6246 -5.6234 16.9358 119.4286 -0.0000 -0.0000 -29.4278 2.0184 -12.6800 -25.9252 0.0000 0.0000 124.7682 5.7005 -21.3862 120.5404 0.0000 0.0000 -34.5340 -2.1493 19.7998 -21.7096 -0.0000 0.0000
 0.7380 22.2677 -0.4858 -132.3985 86.6235 -49.1322 -158.8082 -0.2911 -0.5118 13.9800 12.9424 -1.1562 20.3907 13.6882 23.4392 -21.2168 -13.5603 -88.5126 -36.7569 -0.0000 23.1864 0.1748 11.9141 -0.8467 33.1476 -0.0000 26.2537 53.2478 -33.4844 -5.6503 -36.6256 44.7360 55.6861 46.9582 0.0000 8.2990 0.2019 5.3602 -2.1606 32.8623 0.0000 -24.3270 120.5180 -5.5262 17.1030 119.5161 -0.0000 -0.0000 -29.3437 1.8657 -12.7550 -26.2392 -0.0000 -0.0000 124.6567 5.6962 -21.4983 120.5760 0.0000 0.0000 -34.4593 -2.0611 19.7926 -22.0070 0.0000 -0.0000
 0.6960 22.2590 -0.4706 -131.1436 86.5807 -50.3737 -159.1251 -0.2844 -0.5141 13.9966 12.9208 -1.1293 20.3505 13.7176 23.4389 -21.0468 -13.5843 -88.7656 -36.6091 -0.0000 22.9161 0.1602 12.0378 -0.7683 33.1476 -0.0000 26.2537 53.3550 -33.5479 -5.5174 -36.5115 44.8187 56.0492 46.9103 0.0000 8.0350 0.1686 5.5162 -1.7538 32.8623 0.0000 -24.3270 120.4816 -5.4734 17.2277 119.6062 -0.0000 0.0000 -29.2771 1.7180 -12.7509 -26.6160 -0.0000 -0.0000 124.6252 5.6692 -21.6150 120.6237 0.0000 0.0000 -34.4098 -1.9825 19.8198 -22.1729 0.0000 0.0000
 0.6539 22.2501 -0.4572 -129.6956 86.5110 -51.7961 -159.4466 -0.2656 -0.5151 13.9768 12.8808 -1.1046 20.2665 13.7268 23.4965 -20.8593 -13.5227 -89.0319 -36.4689 -0.0000 22.6035 0.1861 12.0074 -0.8945 33.1476 -0.0000 26.2537 53.4802 -33.6153 -5.3594 -36.3473 44.9984 56.3636 46.8386 0.0000 8.1976 0.1968 5.5983 -2.0168 32.8623 0.0000 -24.3270 120.4276 -5.4653 17.3552 119.6969 -0.0000 0.0000 -29.2282 1.5489 -12.8550 -26.8555 0.0000 0.0000 124.5688 5.6147 -21.7266 120.6647 -0.0000 -0.0000 -34.3550 -1.9070 19.8069 -22.4165 -0.0000 -0.0000
 0.6132 22.2423 -0.4435 -128.3181 86.4595 -53.1561 -159.7545 -0.2680 -0.5233 13.9701 12.8867 -1.0657 20.2513 13.7973 23.5061 -20.7251 -13.5423 -89.2396 -36.3740 -0.0000 22.3672 0.2060 11.9594 -0.9941 33.1476 -0.0000 26.2537 53.6536 -33.6634 -5.1672 -36.2648 45.1312 56.6253 46.8218 0.0000 8.1384 0.1313 5.8746 -1.2831 32.8623 0.0000 -24.3270 120.4015 -5.4346 17.4808 119.7738 0.0000 0.0000 -29.1925 1.4102 -12.9434 -27.1421 0.0000 -0.0000 124.5194 5.5699 -21.8280 120.7076 0.0000 -0.0000 -34.3137 -1.8547 19.7826 -22.5444 0.0000 0.0000
 0.5697 22.2358 -0.4303 -126.4861 86.3633 -55.0069 -160.1127 -0.2715 -0.5444 14.0075 12.8745 -1.0757 20.3274 13.8559 23.4899 -20.6719 -13.5608 -89.4264 -36.3077 -0.0000 22.2210 0.2296 11.9368 -1.1100 33.1476 -0.0000 26.2537 53.7832 -33.7310 -5.0418 -36.0586 45.3662 56.8510 46.7776 0.0000 8.2929 0.1392 5.8291 -1.3701 32.8623 0.0000 -24.3270 120.3382 -5.3685 17.5653 119.8361 -0.0000 -0.0000 -29.1672 1.3102 -12.9965 -27.3391 0.0000 -0.0000 124.4362 5.5706 -21.9463 120.7508 0.0000 0.0000 -34.2778 -1.7853 19.7655 -22.6722 0.0000 0.0000
 0.5268 22.2298 -0.4175 -124.4868 86.2514 -56.9668 -160.4726 -0.2561 -0.5378 14.0012 12.8527 -1.0519 20.3129 13.9129 23.4916 -20.5448 -13.5733 -89.5623 -36.2837 -0.0000 22.1216 0.2687 11.8685 -1.3063 33.1476 -0.0000 26.2537 53.8960 -33.7791 -4.9039 -35.9631 45.4971 57.1461 46.7672 0.0000 8.0479 0.1190 5.4575 -1.2512 32.8623 0.0000 -24.3270 120.2575 -5.3656 17.6986 119.9108 0.0000 0.0000 -29.1393 1.1626 -13.1268 -27.6213 0.0000 0.0000 124.3482 5.5280 -22.0165 120.7703 0.0000 -0.0000 -34.2634 -1.7108 19.7623 -22.7858 -0.0000 0.0000
 0.4849 22.2239 -0.4061 -122.6530 86.1469 -58.7576 -160.8195 -0.2153 -0.5350 14.0306 12.8489 -1.0286 20.3035 13.9915 23.5136 -20.5071 -13.6074 -89.7232 -36.1751 -0.0000 22.0938 0.2847 11.8177 -1.3900 33.1476 -0.0000 26.2537 53.9709 -33.8256 -4.7742 -35.7433 45.6976 57.3685 46.7604 0.0000 8.2415 0.1079 5.3528 -1.1569 32.8623 0.0000 -24.3270 120.1914 -5.3742 17.8322 119.9793 -0.0000 0.0000 -29.1124 1.0271 -13.2580 -27.8779 0.0000 0.0000 124.2684 5.4938 -22.0670 120.7900 0.0000 0.0000 -34.2262 -1.6401 19.8096 -22.9423 -0.0000 -0.0000
